<svg viewBox="0 0 800 800" xmlns="http://www.w3.org/2000/svg"><path d="M388.73478404558966,1.0431376745443686 L415.0291746855182,3.298910288648699 M415.0291746855182,3.298910288648699 L440.3700692574946,7.891946237031675 M440.3700692574946,7.891946237031675 L464.1223207691364,14.707850744443363 M464.1223207691364,14.707850744443363 L485.6898674678222,23.576762339396282 M485.6898674678222,23.576762339396282 L504.53057851036647,34.27742036394807 M504.53057851036647,34.27742036394807 L520.1697445200792,46.542530412780366 M520.1697445200792,46.542530412780366 L532.2120472642436,60.06527355620824 M532.2120472642436,60.06527355620824 L540.351662984984,74.50679309740394 M540.351662984984,74.50679309740394 L544.3801612807906,89.50458407815808 M544.3801612807906,89.50458407815808 L544.0811077804816,259.0052184574867 M544.0811077804816,259.0052184574867 L544.4000106790039,262.30957534031967 M544.4000106790039,262.30957534031967 L544.5190542496448,265.6184996251058 M544.5190542496448,265.6184996251058 L544.4380687856483,268.92803240325145 M544.4380687856483,268.92803240325145 L543.9160649043243,564.1332500558563 M543.560326911836,554.1787827756931 L543.8781992053983,557.4936818751142 M543.8781992053983,557.4936818751142 L543.9968348701176,560.8131614820943 M543.9968348701176,560.8131614820943 L543.9160649043243,564.1332500558563 M543.560326911836,554.1787827756931 L543.2641925150681,722.0248974736419 M543.2641925150681,722.0248974736419 L539.2628960526421,706.9243389603115 M539.2628960526421,706.9243389603115 L531.1778386053043,692.3838021778623 M531.1778386053043,692.3838021778623 L519.2160316949964,678.7682867223873 M519.2160316949964,678.7682867223873 L503.68123898678766,666.418986645773 M503.68123898678766,666.418986645773 L484.966132167508,655.6448418072032 M484.966132167508,655.6448418072032 L463.54225605158035,646.7149978666662 M463.54225605158035,646.7149978666662 L439.948138663012,639.8522504143031 M439.948138663012,639.8522504143031 L414.77588946599366,635.227640828708 M414.77588946599366,635.227640828708 L388.65645052090247,632.9563592589093 M388.67723736365014,465.26978036755196 L388.65645052090247,632.9563592589093 M371.4079270324867,465.0862103609887 L377.16688761653677,465.0331705782129 M377.16688761653677,465.0331705782129 L382.92560759085893,465.0943817945795 M382.92560759085893,465.0943817945795 L388.67723736365014,465.26978036755196 M371.39060206057223,170.1965293093975 L371.4079270324867,465.0862103609887 M371.39060206057223,170.1965293093975 L377.1675305696843,170.14365884560172 M377.1675305696843,170.14365884560172 L382.94421772308266,170.2046746573417 M382.94421772308266,170.2046746573417 L388.7137926899603,170.3795133080298 M388.73478404558966,1.0431376745443686 L388.7137926899603,170.3795133080298 M544.3801612807906,89.50458407815808 L558.2308422408946,89.81278246087868 M558.2308422408946,89.81278246087868 L571.5671891806883,91.98062962670667 M571.5671891806883,91.98062962670667 L583.6315412100752,95.88523503846329 M583.6315412100752,95.88523503846329 L593.7381034171767,101.3051649675134 M593.7381034171767,101.3051649675134 L601.3117454755816,107.93288753525974 M601.3117454755816,107.93288753525974 L605.9207506294822,115.39202476587013 M605.9207506294822,115.39202476587013 L607.3015066464989,123.25862525143361 M607.3015066464989,123.25862525143361 L605.3738170572523,131.0851447675741 M605.3738170572523,131.0851447675741 L600.2458445006528,138.42586839927924 M600.2458445006528,138.42586839927924 L592.2082106724628,144.86234428757052 M592.2082106724628,144.86234428757052 L581.7178813998098,150.0273567715238 M581.7178813998098,150.0273567715238 L569.3721558175096,153.6260224798532 M569.3721558175096,153.6260224798532 L555.8746309215336,155.45274037556814 M555.8746309215336,155.45274037556814 L541.9950080177275,155.40313501093192 M541.9950080177275,155.40313501093192 L528.5248867587153,153.4800312508489 M528.5248867587153,153.4800312508489 L516.2323926478228,149.79333659104162 M516.2323926478228,149.79333659104162 L499.6277354072748,161.687677431747 M499.6277354072748,161.687677431747 L479.91938408220443,171.93553987238434 M479.91938408220443,171.93553987238434 L457.604287360379,180.2763798453231 M457.604287360379,180.2763798453231 L433.24632786923604,186.4978899564665 M433.24632786923604,186.4978899564665 L407.4620019741806,190.44157261185413 M407.4620019741806,190.44157261185413 L380.9045162832241,192.00687486401387 M380.9045162832241,192.00687486401387 L354.24705380974194,191.15388568855653 M354.24705380974194,191.15388568855653 L328.1653739849868,187.90435882031795 M328.1653739849868,187.90435882031795 L303.3203718504253,182.34114681878228 M303.3203718504253,182.34114681878228 L295.90054022974977,189.04551461292252 M295.90054022974977,189.04551461292252 L285.9085541319332,194.55904187393267 M285.9085541319332,194.55904187393267 L273.91317044104795,198.56697428832885 M273.91317044104795,198.56697428832885 L260.59790899219234,200.84039147778776 M260.59790899219234,200.84039147778776 L246.72198900787737,201.2493816473226 M246.72198900787737,201.2493816473226 L233.0768288123237,199.7705590702212 M233.0768288123237,199.7705590702212 L220.44055234915248,196.4884484095323 M220.44055234915248,196.4884484095323 L209.53345187146246,191.59055688583118 M209.53345187146246,191.59055688583118 L200.9766894644572,185.3565658459315 M200.9766894644572,185.3565658459315 L195.25688629731843,178.142194657992 M195.25688629731843,178.142194657992 L192.69849335350108,170.3587665413675 M192.69849335350108,170.3587665413675 L193.44561002311553,162.44960514896928 M193.44561002311553,162.44960514896928 L197.45405778998295,154.8647797168625 M197.45405778998295,154.8647797168625 L204.49431725420806,148.03546542599474 M204.49431725420806,148.03546542599474 L214.1649115252671,142.34953089597064 M214.1649115252671,142.34953089597064 L225.91536737609934,138.12965788913903 M225.91536737609934,138.12965788913903 L216.2258655744387,123.97960369255168 M216.2258655744387,123.97960369255168 L210.59347044649593,109.13882641931525 M210.59347044649593,109.13882641931525 L209.15636422384068,93.98222189491264 M209.15636422384068,93.98222189491264 L211.94668429294896,78.8919347523015 M211.94668429294896,78.8919347523015 L218.89013661242066,64.2477040228107 M218.89013661242066,64.2477040228107 L229.80821352191936,50.4173259314266 M229.80821352191936,50.4173259314266 L244.42312321113855,37.74755172537084 M244.42312321113855,37.74755172537084 L262.3649980478715,26.555471286529382 M262.3649980478715,26.555471286529382 L283.18138752072593,17.12076626523651 M283.18138752072593,17.12076626523651 L276.7503870434295,10.158640652871895 M276.7503870434295,10.158640652871895 L273.4058564786829,2.528951837211366 M273.4058564786829,2.528951837211366 L273.3367272061667,-5.333607557374421 M273.3367272061667,-5.333607557374421 L276.5452817895916,-12.98153196888802 M276.5452817895916,-12.98153196888802 L282.84747068340744,-19.979945746012504 M282.84747068340744,-19.979945746012504 L291.8836085200005,-25.93129862289436 M291.8836085200005,-25.93129862289436 L303.13918280350583,-30.497785320979006 M303.13918280350583,-30.497785320979006 L315.9741178290352,-33.420358445677834 M315.9741178290352,-33.420358445677834 L329.6590801908306,-34.53334560466283 M329.6590801908306,-34.53334560466283 L343.41674484475897,-33.77364597224323 M343.41674484475897,-33.77364597224323 L356.46569867885444,-31.18431922885759 M356.46569867885444,-31.18431922885759 L368.06454049911173,-26.912164797140463 M368.06454049911173,-26.912164797140463 L377.55376112270864,-21.199484280297497 M377.55376112270864,-21.199484280297497 L384.39320469733605,-14.370497037676842 M384.39320469733605,-14.370497037676842 L388.19275903064124,-6.813073164062757 M388.19275903064124,-6.813073164062757 L388.73478404558966,1.0431376745443686 M336.89781916222546,11.058779000627737 L342.6347604200032,9.746280284490695 M342.6347604200032,9.746280284490695 L347.65275658724016,7.691633991480103 M347.65275658724016,7.691633991480103 L351.6600528924555,5.014416024297361 M351.6600528924555,5.014416024297361 L354.423817947296,1.8704041060806276 M354.423817947296,1.8704041060806276 L355.78363455311,-1.5575239779656158 M355.78363455311,-1.5575239779656158 L355.6607682518056,-5.070086331821244 M355.6607682518056,-5.070086331821244 L354.0626968963445,-8.463140719964258 M354.0626968963445,-8.463140719964258 L351.0825653807329,-11.539591518875795 M351.0825653807329,-11.539591518875795 L346.89377036431097,-14.120806022341867 M346.89377036431097,-14.120806022341867 L341.73974221804866,-16.056961500612715 M341.73974221804866,-16.056961500612715 L335.9199133249374,-17.235704483079644 M335.9199133249374,-17.235704483079644 L329.7722390985989,-17.58865138262081 M329.7722390985989,-17.58865138262081 L323.65367839763474,-17.095322792675802 M323.65367839763474,-17.095322792675802 L317.9195102471149,-15.784346876776794 M317.9195102471149,-15.784346876776794 L312.90274562552844,-13.731774027234792 M312.90274562552844,-13.731774027234792 L308.89483310310084,-11.056718833026139 M308.89483310310084,-11.056718833026139 L306.12874524035084,-7.9144635497640365 M306.12874524035084,-7.9144635497640365 L304.7654510787678,-4.487467385743457 M304.7654510787678,-4.487467385743457 L304.8844610390513,-0.9748242113226979 M304.8844610390513,-0.9748242113226979 L306.47919272707827,2.4193257503023915 M306.47919272707827,2.4193257503023915 L309.4572576446843,5.49763095473952 M309.4572576446843,5.49763095473952 L313.64575328923274,8.081031970527306 M313.64575328923274,8.081031970527306 L318.8012817721519,10.01919831990267 M318.8012817721519,10.01919831990267 L324.6240997503726,11.199324612456053 M324.6240997503726,11.199324612456053 L330.7755506693388,11.552709798323008 M330.7755506693388,11.552709798323008 L336.89781916222546,11.058779000627737 M267.158295437482,158.7674113496355 L262.2809482239989,156.5856440202932 M262.2809482239989,156.5856440202932 L256.62864349561335,155.13384517415304 M256.62864349561335,155.13384517415304 L250.5296715541603,154.49623568802318 M250.5296715541603,154.49623568802318 L244.33816987454668,154.70980528740213 M244.33816987454668,154.70980528740213 L238.4136227201089,155.76217246177373 M238.4136227201089,155.76217246177373 L233.10008684887362,157.59227666462488 M233.10008684887362,157.59227666462488 L228.70619853976916,160.09393249451375 M228.70619853976916,160.09393249451375 L225.48732393670323,163.12193644377257 M225.48732393670323,163.12193644377257 L223.6306754005984,166.50048666733372 M223.6306754005984,166.50048666733372 L223.2444419531334,170.03333207684912 M223.2444419531334,170.03333207684912 L224.35138625935005,173.51518738018325 M224.35138625935005,173.51518738018325 L226.88748519766688,176.7436341848194 M226.88748519766688,176.7436341848194 L230.7055895176388,179.53089455500614 M230.7055895176388,179.53089455500614 L235.58386024298022,181.71481313763474 M235.58386024298022,181.71481313763474 L241.23873579118953,183.16827040421887 M241.23873579118953,183.16827040421887 L247.34133690141635,183.8066655647223 M247.34133690141635,183.8066655647223 L253.53669470356402,183.59282890409182 M253.53669470356402,183.59282890409182 L259.4644415496181,182.53920310452807 M259.4644415496181,182.53920310452807 L264.7797876628354,180.707137058053 M264.7797876628354,180.707137058053 L269.1736820631646,178.20326559471445 M269.1736820631646,178.20326559471445 L272.390757211378,175.1732998017898 M272.390757211378,175.1732998017898 L274.24421297663736,171.79349095518572 M274.24421297663736,171.79349095518572 L274.62659177039683,168.26037848132225 M274.62659177039683,168.26037848132225 L273.5160139756007,164.77930885151187 M273.5160139756007,164.77930885151187 L270.97733509845193,161.55252047295113 M270.97733509845193,161.55252047295113 L267.158295437482,158.7674113496355 M464.9732843156642,46.09187476877298 L480.91330759133837,57.200233923956034 M480.91330759133837,57.200233923956034 L492.60807828675706,69.91101981381769 M492.60807828675706,69.91101981381769 L499.5761888687488,83.70601702877116 M499.5761888687488,83.70601702877116 L501.52843219955525,98.02185937056981 M501.52843219955525,98.02185937056981 L498.38029818114967,112.27286483255568 M498.38029818114967,112.27286483255568 L490.25618304180193,125.87493774135419 M490.25618304180193,125.87493774135419 L477.4850069266987,138.2695972651644 M477.4850069266987,138.2695972651644 L460.58735813731795,148.947093004106 M460.58735813731795,148.947093004106 L440.25454233309335,157.46765158850857 M440.25454233309335,157.46765158850857 L417.3203845409103,163.47991660046492 M417.3203845409103,163.47991660046492 L392.7268274492539,166.73573014306075 M392.7268274492539,166.73573014306075 L367.4849139652095,167.10063177090467 M367.4849139652095,167.10063177090467 L342.632691265132,164.5595452520865 M342.632691265132,164.5595452520865 L319.19196998924804,159.21742782598736 M319.19196998924804,159.21742782598736 L298.1258056672151,151.2948082221781 M298.1258056672151,151.2948082221781 L280.29845461566197,141.11848203670013 M280.29845461566197,141.11848203670013 L266.4397631400204,129.1077181820741 M266.4397631400204,129.1077181820741 L257.11527700541086,115.75665573696801 M257.11527700541086,115.75665573696801 L252.70335734922122,101.6137182755981 M252.70335734922122,101.6137182755981 L253.38027764203343,87.2588278984606 M253.38027764203343,87.2588278984606 L259.1136885120942,73.27953040773173 M259.1136885120942,73.27953040773173 L269.66471031494456,60.246972871865296 M269.66471031494456,60.246972871865296 L284.5983700019898,48.692697422483434 M284.5983700019898,48.692697422483434 L303.3019143018428,39.08722649183301 M303.3019143018428,39.08722649183301 L325.01009138428213,31.821183780855335 M325.01009138428213,31.821183780855335 L348.83641506574963,27.18973952404815 M348.83641506574963,27.18973952404815 L373.8090977020953,25.38089344594937 M373.8090977020953,25.38089344594937 L398.9102272764756,26.46804442460484 M398.9102272764756,26.46804442460484 L423.1167365974105,30.40708088045733 M423.1167365974105,30.40708088045733 L445.4415351309847,37.03812671030619 M445.4415351309847,37.03812671030619 L464.9732843156642,46.09187476877298 M526.8260254228301,119.0968610508724 L525.9664693341418,122.59392880826658 M525.9664693341418,122.59392880826658 L526.6008067986853,126.10866781840605 M526.6008067986853,126.10866781840605 L528.692497158669,129.43678092795471 M528.692497158669,129.43678092795471 L532.1202391674237,132.38473076700853 M532.1202391674237,132.38473076700853 L536.6849653355481,134.78102300270314 M536.6849653355481,134.78102300270314 L542.121352842135,136.4862028830945 M542.121352842135,136.4862028830945 L548.1132787488467,137.4010091492263 M548.1132787488467,137.4010091492263 L554.3122225869499,137.47218544164582 M554.3122225869499,137.47218544164582 L560.3576093207802,136.69559035488828 M560.3576093207802,136.69559035488828 L565.8977866875995,135.1164281765653 M565.8977866875995,135.1164281765653 L570.6105944390546,132.82663456146895 M570.6105944390546,132.82663456146895 L574.2220843738243,129.9594674780854 M574.2220843738243,129.9594674780854 L576.5224684050459,126.68173371814396 M576.5224684050459,126.68173371814396 L577.378312296327,123.1840538509278 M577.378312296327,123.1840538509278 L576.7401788282656,119.66975670527324 M576.7401788282656,119.66975670527324 L574.6454870053002,116.34304317189515 M574.6454870053002,116.34304317189515 L571.2162246357923,113.39712063503828 M571.2162246357923,113.39712063503828 L566.6518230115071,111.00303771699714 M566.6518230115071,111.00303771699714 L561.2175184497514,109.29972241135044 M561.2175184497514,109.29972241135044 L555.228953402208,108.38602066129363 M555.228953402208,108.38602066129363 L549.0338696721233,108.31493083593762 M549.0338696721233,108.31493083593762 L542.9919942278476,109.0905814104417 M542.9919942278476,109.0905814104417 L537.454129971848,110.66797262500768 M537.454129971848,110.66797262500768 L532.7419357859802,112.95558581115404 M532.7419357859802,112.95558581115404 L529.1292193070454,115.8206625080337 M529.1292193070454,115.8206625080337 L526.8260254228301,119.0968610508724 M590.8494956188022,269.22508076662143 L580.9561909460712,264.47271598616146 M580.9561909460712,264.47271598616146 L569.4769877625754,261.0865441491951 M569.4769877625754,261.0865441491951 L556.9794410523479,259.2335887488442 M556.9794410523479,259.2335887488442 L544.0811077804816,259.0052184574867 M565.4653383438115,323.92185341264076 L578.2761285511872,302.52486218930073 M578.2761285511872,302.52486218930073 L587.6037724417345,286.9381304623525 M587.6037724417345,286.9381304623525 L593.181249617333,277.47525877492615 M593.181249617333,277.47525877492615 L596.7455142683145,271.29816267952583 M596.7455142683145,271.29816267952583 L600.3465762860794,264.86297376445407 M600.3465762860794,264.86297376445407 L602.7134513940807,260.43704925427664 M602.7134513940807,260.43704925427664 L604.9280732054518,255.99012068330484 M604.9280732054518,255.99012068330484 L606.2911387268996,252.84688519948782 M606.2911387268996,252.84688519948782 L606.8799714318282,251.04086831115885 M606.8799714318282,251.04086831115885 L606.995813514024,250.04778579952995 M606.995813514024,250.04778579952995 L606.652585923908,249.62367781887573 M606.652585923908,249.62367781887573 L605.4799761698226,250.23969291324784 M605.4799761698226,250.23969291324784 L602.8937987156824,252.84946049081788 M602.8937987156824,252.84946049081788 L597.2334026159666,260.048801349154 M597.2334026159666,260.048801349154 L590.8494956188022,269.22508076662143 M515.9832961570519,319.40557230124165 L527.378569129458,322.90315705183104 M527.378569129458,322.90315705183104 L539.8397731417817,324.8735630551424 M539.8397731417817,324.8735630551424 L552.7488435889132,325.2188507181026 M552.7488435889132,325.2188507181026 L565.4653383438115,323.92185341264076 M516.2323926478228,149.79333659104162 L515.9832961570519,319.40557230124165 M580.9164178900168,245.7351010251935 L580.9848928929189,213.92911350126354 M580.9164178900168,245.7351010251935 L591.6693958836813,240.53925512419255 M591.6693958836813,240.53925512419255 L599.9067197829521,234.01495229085805 M599.9067197829521,234.01495229085805 L605.1439302670528,226.54723317945496 M605.1439302670528,226.54723317945496 L607.0739557655099,218.5764616476369 M607.0739557655099,218.5764616476369 L605.5848016643121,210.57218655921247 M605.5848016643121,210.57218655921247 L600.7658389523292,203.00547403569396 M600.7658389523292,203.00547403569396 L600.840909239647,171.21430096970866 M580.9848928929189,213.92911350126354 L591.7414730032718,208.73506760848738 M591.7414730032718,208.73506760848738 L599.9815516775934,202.21302555381527 M599.9815516775934,202.21302555381527 L605.22050776429,194.74789488223487 M605.22050776429,194.74789488223487 L607.1511677661463,186.77988704230458 M607.1511677661463,186.77988704230458 L605.6615008188004,178.77838818247136 M605.6615008188004,178.77838818247136 L600.840909239647,171.21430096970866 M590.8494956188022,269.22508076662143 L590.3447394717931,275.03066970734244 M590.3447394717931,275.03066970734244 L589.3579336517032,280.81670609943393 M589.3579336517032,280.81670609943393 L587.8911368353995,286.57011488150613 M582.2872523092162,274.7229993685785 L587.8911368353995,286.57011488150613 M544.4380687856483,268.92803240325145 L582.2872523092162,274.7229993685785 M539.2380502324879,668.424496010486 L540.1087997593505,162.35979483352094 M540.1087997593505,162.35979483352094 L573.7847948441147,167.50411298920667 M573.7188021260413,199.2939980378578 L573.7847948441147,167.50411298920667 M573.7188021260413,199.2939980378578 L582.4478917191574,200.62836065602932 M582.4478917191574,200.62836065602932 L582.2872523092162,274.7229993685785 M581.6471984355666,569.946696604676 L543.9160649043243,564.1332500558563 M581.6471984355666,569.946696604676 L581.4878079841375,643.4652554514507 M581.4878079841375,643.4652554514507 L572.7995289425857,642.1245054556957 M572.7341951568471,673.5969708890138 L572.7995289425857,642.1245054556957 M572.7341951568471,673.5969708890138 L539.2380502324879,668.424496010486 M587.2334478687362,581.8315774073087 L581.6471984355666,569.946696604676 M587.2334478687362,581.8315774073087 L588.6957525192936,576.0598307168182 M588.6957525192936,576.0598307168182 L589.6795640239181,570.2553479482859 M589.6795640239181,570.2553479482859 L590.1828293878823,564.4312457868624 M543.560326911836,554.1787827756931 L556.418463613694,554.4078817064462 M556.418463613694,554.4078817064462 L568.8770414821662,556.2667488971733 M568.8770414821662,556.2667488971733 L580.3204255478179,559.66372301006 M580.3204255478179,559.66372301006 L590.1828293878823,564.4312457868624 M564.8771050887239,619.3022597016344 L552.2002773046028,620.603383837443 M552.2002773046028,620.603383837443 L539.3314948054427,620.2569975484158 M539.3314948054427,620.2569975484158 L526.9091968263343,618.2803218598748 M526.9091968263343,618.2803218598748 L515.5495147003547,614.7716067735511 M590.1828293878823,564.4312457868624 L598.4445967151075,588.940785339724 M598.4445967151075,588.940785339724 L603.1162135660343,606.5970500560301 M603.1162135660343,606.5970500560301 L605.0995904997152,617.1808815846188 M605.0995904997152,617.1808815846188 L605.8782717962378,624.0046123505771 M605.8782717962378,624.0046123505771 L606.0468369253532,631.0052526562275 M606.0468369253532,631.0052526562275 L605.5821878348403,635.7211430634782 M605.5821878348403,635.7211430634782 L604.2867030912838,640.3172085872457 M604.2867030912838,640.3172085872457 L602.3580758709281,643.3914877856877 M602.3580758709281,643.3914877856877 L600.2711407934564,644.9893197808024 M600.2711407934564,644.9893197808024 L598.0633126862765,645.6855764681387 M598.0633126862765,645.6855764681387 L595.0942856104517,645.6348236777571 M595.0942856104517,645.6348236777571 L590.7273837949841,644.2186435347311 M590.7273837949841,644.2186435347311 L584.4544489336853,640.3208188696881 M584.4544489336853,640.3208188696881 L574.2852417857545,630.804495081108 M574.2852417857545,630.804495081108 L564.8771050887239,619.3022597016344 M515.3028528030973,782.7261039600895 L527.5132235754631,786.4379863860598 M527.5132235754631,786.4379863860598 L540.893388971597,788.3742273734923 M540.893388971597,788.3742273734923 L554.6803628005002,788.424171591288 M554.6803628005002,788.424171591288 L568.0878403927094,786.5849749569842 M568.0878403927094,786.5849749569842 L580.351265150789,782.9617231001206 M580.351265150789,782.9617231001206 L590.7717368523088,777.7614166237029 M590.7717368523088,777.7614166237029 L598.755935470304,771.2809476932352 M598.755935470304,771.2809476932352 L603.849929536348,763.8900359234141 M603.849929536348,763.8900359234141 L605.7650150608815,756.009989770937 M605.7650150608815,756.009989770937 L604.3937259401455,748.0895707072287 M604.3937259401455,748.0895707072287 L599.8156984259997,740.5793860146323 M599.8156984259997,740.5793860146323 L592.292764584133,733.9062923876621 M592.292764584133,733.9062923876621 L582.2537463178329,728.4492500962663 M582.2537463178329,728.4492500962663 L570.269930949442,724.517903080511 M570.269930949442,724.517903080511 L557.0225409004679,722.3352070054823 M557.0225409004679,722.3352070054823 L543.2641925150681,722.0248974736419 M515.5495147003547,614.7716067735511 L515.3028528030973,782.7261039600895 M599.7201163863367,645.8537467987402 L604.5163899892412,653.4566695389974 M604.5163899892412,653.4566695389974 L605.9984011192277,661.499236226798 M605.9984011192277,661.499236226798 L604.0772150968062,669.5081262521888 M604.0772150968062,669.5081262521888 L598.8643214798988,677.0115465025665 M598.8643214798988,677.0115465025665 L590.6653719333029,683.5670310607184 M590.6653719333029,683.5670310607184 L579.962571441678,688.7877034320051 M579.962571441678,688.7877034320051 L579.8947808329702,720.2757963625303 M599.6457957294675,677.3274622902692 L604.4404568540533,684.9329329526486 M604.4404568540533,684.9329329526486 L605.9219603913136,692.9781940051237 M605.9219603913136,692.9781940051237 L604.0014026640547,700.9897662010394 M604.0014026640547,700.9897662010394 L598.7902373287803,708.4956985147732 M598.7902373287803,708.4956985147732 L590.5940151306951,715.0533771238887 M590.5940151306951,715.0533771238887 L579.8947808329702,720.2757963625303 M599.7201163863367,645.8537467987402 L599.6457957294675,677.3274622902692 M388.65645052090247,632.9563592589093 L388.11804422650863,625.0461236937907 M388.11804422650863,625.0461236937907 L384.3437724935923,617.4367129408836 M384.3437724935923,617.4367129408836 L377.54981804774434,610.5607354885873 M377.54981804774434,610.5607354885873 L368.12369294670174,604.8087357160366 M368.12369294670174,604.8087357160366 L356.60196083570315,600.507170727438 M356.60196083570315,600.507170727438 L343.6397508503113,597.9000158597936 M343.6397508503113,597.9000158597936 L329.97354410166184,597.135085149205 M329.97354410166184,597.135085149205 L316.37956961539,598.2557359682115 M316.37956961539,598.2557359682115 L303.62999454509963,601.1984312582032 M303.62999454509963,601.1984312582032 L292.4493096019553,605.7963536692193 M292.4493096019553,605.7963536692193 L283.4733352422083,611.7886666460029 M283.4733352422083,611.7886666460029 L277.21315672810715,618.8352338198351 M277.21315672810715,618.8352338198351 L274.0260554833249,626.5357644888994 M274.0260554833249,626.5357644888994 L274.09484086711734,634.4523889009462 M274.09484086711734,634.4523889009462 L277.4172280989307,642.1345243895197 M277.4172280989307,642.1345243895197 L283.8055270724388,649.144493161362 M515.3028528030973,782.7261039600895 L498.80881215897534,794.7016937090881 M498.80881215897534,794.7016937090881 L479.231883327068,805.0195253904327 M479.231883327068,805.0195253904327 L457.0656987534449,813.4172916601646 M457.0656987534449,813.4172916601646 L432.8703673891642,819.681250546043 M432.8703673891642,819.681250546043 L407.25825139818096,823.6518347876354 M407.25825139818096,823.6518347876354 L380.87817112145717,825.2278134069608 M380.87817112145717,825.2278134069608 L354.39878597858973,824.3690063849426 M354.39878597858973,824.3690063849426 L328.4913140853353,821.0973140650308 M328.4913140853353,821.0973140650308 L303.8122113781064,815.4961475823364 M226.92323855880417,770.9827123087958 L215.2512870626836,775.2314296815689 M215.2512870626836,775.2314296815689 L205.64536662619201,780.9562215096206 M205.64536662619201,780.9562215096206 L198.65226878642943,787.8321945405049 M198.65226878642943,787.8321945405049 L194.6707757377509,795.4688246769402 M194.6707757377509,795.4688246769402 L193.9288544651191,803.4319883117674 M193.9288544651191,803.4319883117674 L196.47036587696817,811.2685425548506 M196.47036587696817,811.2685425548506 L202.1521511163426,818.5321401261579 M202.1521511163426,818.5321401261579 L210.65190846929087,824.8086559417122 M210.65190846929087,824.8086559417122 L221.48625597949723,829.73995025154 M221.48625597949723,829.73995025154 L234.0381774047534,833.0444404721691 M234.0381774047534,833.0444404721691 L247.59219605531376,834.5333456046628 M247.59219605531376,834.5333456046628 L261.37539555996864,834.121567019066 M261.37539555996864,834.121567019066 L274.6016568267453,831.8326492294937 M274.6016568267453,831.8326492294937 L286.51684446177785,827.7973863187634 M286.51684446177785,827.7973863187634 L296.44201371594954,822.246254179257 M296.44201371594954,822.246254179257 L303.8122113781064,815.4961475823364 M226.92323855880417,770.9827123087958 L217.29806732253212,756.7358998217171 M217.29806732253212,756.7358998217171 L211.70289209436103,741.7935789685785 M211.70289209436103,741.7935789685785 L210.27500696787797,726.5332042717364 M210.27500696787797,726.5332042717364 L213.0463711194009,711.3395351049076 M213.0463711194009,711.3395351049076 L219.9432211882544,696.594915373223 M219.9432211882544,696.594915373223 L230.78827076517322,682.6696705390259 M230.78827076517322,682.6696705390259 L245.3056038964669,669.9129420493674 M245.3056038964669,669.9129420493674 L263.1278329895586,658.6440103713993 M263.1278329895586,658.6440103713993 L283.8055270724388,649.144493161362 M267.89129035756713,791.7614834002682 L271.68487777536336,794.5656137377124 M271.68487777536336,794.5656137377124 L274.2066560469973,797.8144370276677 M274.2066560469973,797.8144370276677 L275.30986988385,801.3192746193779 M275.30986988385,801.3192746193779 L274.93009589449036,804.8765068143259 M274.93009589449036,804.8765068143259 L273.0890667891419,808.2793854414828 M273.0890667891419,808.2793854414828 L269.89352150046807,811.330030264741 M269.89352150046807,811.330030264741 L265.52901104106047,813.8509882486998 M265.52901104106047,813.8509882486998 L260.2491951879755,815.6955552415291 M260.2491951879755,815.6955552415291 L254.36105805184837,816.7563699279056 M254.36105805184837,816.7563699279056 L248.20708367824955,816.9716655565347 M248.20708367824955,816.9716655565347 L242.14523036175638,816.3289147047577 M242.14523036175638,816.3289147047577 L236.52809474440232,814.8655402399618 M236.52809474440232,814.8655402399618 L231.68235973122648,812.6667192444543 M231.68235973122648,812.6667192444543 L227.88969516651758,809.8604374355949 M227.88969516651758,809.8604374355949 L225.3704624659187,806.6099555464597 M225.3704624659187,806.6099555464597 L224.27083374341305,803.1043321992178 M224.27083374341305,803.1043321992178 L224.65441108771202,799.5473670964938 M224.65441108771202,799.5473670964938 L226.49859049244384,796.1457472237539 M226.49859049244384,796.1457472237539 L229.6959113216157,793.0970644489362 M229.6959113216157,793.0970644489362 L234.06041581099868,790.5783223296905 M234.06041581099868,790.5783223296905 L239.33844555109397,788.7357173852573 M239.33844555109397,788.7357173852573 L245.22342560477523,787.676161455445 M245.22342560477523,787.676161455445 L251.37359518383505,787.4611329159422 M251.37359518383505,787.4611329159422 L257.43186761983435,788.1030980113395 M257.43186761983435,788.1030980113395 L263.0464666037139,789.5648138825901 M263.0464666037139,789.5648138825901 L267.89129035756713,791.7614834002682 M337.1644198008273,643.0408492024047 L331.0828954146341,643.5381745851411 M331.0828954146341,643.5381745851411 L324.9723773469818,643.1823607341058 M324.9723773469818,643.1823607341058 L319.1882978622152,641.9941236772394 M319.1882978622152,641.9941236772394 L314.0670587877722,640.0426358381998 M314.0670587877722,640.0426358381998 L309.90640902332535,637.4414767911742 M309.90640902332535,637.4414767911742 L306.9481284839787,634.3420091190636 M306.9481284839787,634.3420091190636 L305.36397218783566,630.9245221756777 M305.36397218783566,630.9245221756777 L305.2457178581386,627.387723799087 M305.2457178581386,627.387723799087 L306.59990837282044,623.9371579634409 M306.59990837282044,623.9371579634409 L309.3475662144675,620.7732883756888 M309.3475662144675,620.7732883756888 L313.32879615514787,618.0798303108869 M313.32879615514787,618.0798303108869 L318.3121769880288,616.0131355170957 M318.3121769880288,616.0131355170957 L324.00819887910666,614.6931392950252 M324.00819887910666,614.6931392950252 L330.08606461700526,614.1964161778828 M330.08606461700526,614.1964161778828 L336.19285607112323,614.5517916643803 M336.19285607112323,614.5517916643803 L341.9739860705942,615.7386451808495 M341.9739860705942,615.7386451808495 L347.09374474815314,617.6881218230253 M347.09374474815314,617.6881218230253 L351.25468981400525,620.2870939510052 M351.25468981400525,620.2870939510052 L354.2150095630777,623.3847068701297 M354.2150095630777,623.3847068701297 L355.8024612327386,626.801098044527 M355.8024612327386,626.801098044527 L355.9245207933967,630.3378156357497 M355.9245207933967,630.3378156357497 L354.5737616967909,633.7893135081044 M354.5737616967909,633.7893135081044 L351.8283959297375,636.9549400773642 M351.8283959297375,636.9549400773642 L347.8477740490173,639.6505613010881 M347.8477740490173,639.6505613010881 L342.86317795808276,641.7193298752737 M342.86317795808276,641.7193298752737 L337.1644198008273,643.0408492024047 M525.826435761908,751.8197554934529 L528.1143385239441,748.5211413928768 M528.1143385239441,748.5211413928768 L531.7030237134624,745.6364594695348 M531.7030237134624,745.6364594695348 L536.3838443351025,743.3331908385509 M536.3838443351025,743.3331908385509 L541.8848154054019,741.745003753957 M541.8848154054019,741.745003753957 L547.886419617683,740.9640442628399 M547.886419617683,740.9640442628399 L554.0401903155426,741.0356206675605 M554.0401903155426,741.0356206675605 L559.9887972428525,741.9555761843098 M559.9887972428525,741.9555761843098 L565.3868169660968,743.6705490669693 M565.3868169660968,743.6705490669693 L569.9207133979168,746.0810157946721 M569.9207133979168,746.0810157946721 L573.327022682881,749.0470963621973 M573.327022682881,749.0470963621973 L575.4076492295219,752.3965705478723 M575.4076492295219,752.3965705478723 L576.041426024875,755.9349082813725 M576.041426024875,755.9349082813725 L575.1911916282359,759.4565115202854 M575.1911916282359,759.4565115202854 L572.9060613780686,762.756661062109 M572.9060613780686,762.756661062109 L569.3185863145274,765.6434335983985 M569.3185863145274,765.6434335983985 L564.6371602316356,767.9488829293128 M564.6371602316356,767.9488829293128 L559.1339068207178,769.5388412311038 M559.1339068207178,769.5388412311038 L553.1288378965168,770.3207453351822 M553.1288378965168,770.3207453351822 L546.971258505106,770.2490824693263 M546.971258505106,770.2490824693263 L541.0193354333761,769.3280222992353 M541.0193354333761,769.3280222992353 L535.6192604783266,767.611184626779 M535.6192604783266,767.611184626779 L531.0850438435042,765.1985082568295 M531.0850438435042,765.1985082568295 L527.680234811876,762.2304001685036 M527.680234811876,762.2304001685036 L525.6025698828581,758.8795262160447 M525.6025698828581,758.8795262160447 L524.9725386286339,755.340746563145 M524.9725386286339,755.340746563145 L525.826435761908,751.8197554934529 M449.451894610189,686.9374196607857 L432.1642605262881,678.9272947099271 M432.1642605262881,678.9272947099271 L412.30344424432343,673.2482830287491 M412.30344424432343,673.2482830287491 L390.79579267002015,670.1641740019192 M390.79579267002015,670.1641740019192 L368.64362145620237,669.8181462481459 M368.64362145620237,669.8181462481459 L346.87890599344547,672.2262607598582 M346.87890599344547,672.2262607598582 L326.515802197966,677.2767300342629 M326.515802197966,677.2767300342629 L308.50383387956373,684.7349985187728 M308.50383387956373,684.7349985187728 L293.6839970313126,694.2544198730832 M293.6839970313126,694.2544198730832 L282.74965690110207,705.3920706161396 M282.74965690110207,705.3920706161396 L276.21405364332685,717.6290585406263 M276.21405364332685,717.6290585406263 L274.3859522998051,730.3944394577665 M274.3859522998051,730.3944394577665 L277.35460061892354,743.0916839877531 M277.35460061892354,743.0916839877531 L284.98488565800557,755.1264938135622 M284.98488565800557,755.1264938135622 L296.9229509872528,765.9347065234459 M296.9229509872528,765.9347065234459 L312.6122018065406,775.0089371063215 M312.6122018065406,775.0089371063215 L331.31903075092896,781.9226689207921 M331.31903075092896,781.9226689207921 L352.16712442769114,786.3506111428029 M352.16712442769114,786.3506111428029 L374.17872694756306,788.084282657987 M374.17872694756306,788.084282657987 L396.32089729683287,787.0420280105881 M396.32089729683287,787.0420280105881 L417.5545092991389,783.2729358687702 M417.5545092991389,783.2729358687702 L436.88352735551734,776.9544928232115 M436.88352735551734,776.9544928232115 L453.40216951940397,768.384040640292 M453.40216951940397,768.384040640292 L466.33763302923154,757.9645261104662 M466.33763302923154,757.9645261104662 L475.08630881795193,746.1852517100261 M475.08630881795193,746.1852517100261 L479.2417585788343,733.5986049837874 M479.2417585788343,733.5986049837874 L478.61323656576275,720.7939437499588 M478.61323656576275,720.7939437499588 L473.23395503467754,708.3698623112147 M473.23395503467754,708.3698623112147 L463.3588217627257,696.9062676866978 M463.3588217627257,696.9062676866978 L449.451894610189,686.9374196607857 M370.8945004412278,438.59533663731577 L379.1598919257164,444.22803356864387 M379.1598919257164,444.22803356864387 L385.051855364986,450.77180239305414 M385.051855364986,450.77180239305414 L388.2779275423035,457.90328223864793 M388.2779275423035,457.90328223864793 L388.67723736365014,465.26978036755196 M275.8575210955588,453.20678604962745 L281.38006637064547,463.9985654939601 M281.38006637064547,463.9985654939601 L288.11113764967234,470.3014116952757 M288.11113764967234,470.3014116952757 L293.77071820981104,473.27212888233066 M293.77071820981104,473.27212888233066 L298.37427165714126,474.7330515208505 M298.37427165714126,474.7330515208505 L304.2733987319038,475.6861759576731 M304.2733987319038,475.6861759576731 L309.31266152917874,475.8414458120807 M309.31266152917874,475.8414458120807 L315.76555773485296,475.2944831136841 M315.76555773485296,475.2944831136841 L322.021201085857,474.0526488212431 M322.021201085857,474.0526488212431 L327.2546867625939,472.5111242311225 M327.2546867625939,472.5111242311225 L331.91243245326757,470.76261096134965 M331.91243245326757,470.76261096134965 L337.3108978172796,468.2870901620294 M337.3108978172796,468.2870901620294 L344.0930885246085,464.4598240152965 M344.0930885246085,464.4598240152965 L352.2710401559904,458.65996986513017 M352.2710401559904,458.65996986513017 L362.9801298908384,448.6048636397679 M362.9801298908384,448.6048636397679 L370.8945004412278,438.59533663731577 M283.63990362075424,481.4288742620723 L277.5794020345676,474.93059794649355 M277.5794020345676,474.93059794649355 L274.17384572387164,467.8239502415902 M274.17384572387164,467.8239502415902 L273.59069875559334,460.46114851343134 M273.59069875559334,460.46114851343134 L275.8575210955588,453.20678604962745 M283.63990362075424,481.4288742620723 L283.8055270724388,649.144493161362 M357.2166004756855,506.4710599389754 L357.22316835634865,537.8979195955707 M283.0185228378993,549.3301771113836 L292.0449433555994,543.1860537864869 M292.0449433555994,543.1860537864869 L303.3740062363676,538.4725736718301 M303.3740062363676,538.4725736718301 L316.3392671953827,535.4663338187935 M316.3392671953827,535.4663338187935 L330.1785846375445,534.343636918148 M330.1785846375445,534.343636918148 L344.0788003784692,535.1703249358363 M344.0788003784692,535.1703249358363 L357.22316835634865,537.8979195955707 M282.9872550693478,517.8994652296934 L283.0185228378993,549.3301771113836 M282.9872550693478,517.8994652296934 L292.0166836426665,511.757412004553 M292.0166836426665,511.757412004553 L303.3495192569989,507.0455203349935 M303.3495192569989,507.0455203349935 L316.319095869926,504.04029375073173 M316.319095869926,504.04029375073173 L330.16301860475824,502.91797529376845 M330.16301860475824,502.91797529376845 L344.06785922581025,503.74438464603577 M344.06785922581025,503.74438464603577 L357.2166004756855,506.4710599389754 M370.8945004412278,438.59533663731577 L360.79982657432276,438.8984308003861 M360.79982657432276,438.8984308003861 L350.7413643682775,439.4763398199858 M350.7413643682775,439.4763398199858 L340.74163417385466,440.3277748198385 M361.3332009095876,443.4941833339831 L340.74163417385466,440.3277748198385 M371.4079270324867,465.0862103609887 L361.3332009095876,443.4941833339831 M372.6143988258894,572.5381424812534 L363.66861810387576,553.3227414647718 M363.66419355118774,521.8906846810169 L363.66861810387576,553.3227414647718 M363.66419355118774,521.8906846810169 L361.34533748074546,516.9131626343625 M361.34533748074546,516.9131626343625 L361.3332009095876,443.4941833339831 M361.28446538228195,148.67346140779975 L371.39060206057223,170.1965293093975 M361.28446538228195,148.67346140779975 L361.272233968303,74.68073990035964 M361.272233968303,74.68073990035964 L363.6019390787005,79.63442687344491 M363.59747001651556,47.88617427658096 L363.6019390787005,79.63442687344491 M363.59747001651556,47.88617427658096 L372.5911245462604,66.99650398286451 M372.5911245462604,66.99650398286451 L372.6143988258894,572.5381424812534 M340.62869042288617,145.51717075328747 L361.28446538228195,148.67346140779975 M340.62869042288617,145.51717075328747 L350.6596046776692,144.66845663377723 M350.6596046776692,144.66845663377723 L360.74943265138563,144.09239445858313 M360.74943265138563,144.09239445858313 L370.875584313651,143.79026892202995 M388.7137926899603,170.3795133080298 L388.31323145151305,163.0365346583069 M388.31323145151305,163.0365346583069 L385.07709164050516,155.9278307959415 M385.07709164050516,155.9278307959415 L379.1667499788705,149.40496690640595 M379.1667499788705,149.40496690640595 L370.875584313651,143.79026892202995 M283.18138752072593,17.12076626523651 L283.34864103644315,186.48704028195888 M275.5421595877202,158.3550370261589 L273.26821649152924,165.58623345721963 M273.26821649152924,165.58623345721963 L273.8531321518891,172.92553000583675 M273.8531321518891,172.92553000583675 L277.2692672340226,180.00949710754293 M277.2692672340226,180.00949710754293 L283.34864103644315,186.48704028195888 M370.875584313651,143.79026892202995 L359.7385622447502,120.87293698301391 M359.7385622447502,120.87293698301391 L349.26541261890293,106.51234424827112 M349.26541261890293,106.51234424827112 L341.57642890774946,99.18903143555542 M341.57642890774946,99.18903143555542 L335.80169302997865,95.22779517892184 M335.80169302997865,95.22779517892184 L328.87840388991606,92.10427606080083 M328.87840388991606,92.10427606080083 L323.31432377915627,90.85370298941052 M323.31432377915627,90.85370298941052 L316.59253915642466,90.87133782561045 M316.59253915642466,90.87133782561045 L310.46379498004706,92.43867646128047 M310.46379498004706,92.43867646128047 L305.60949072451405,94.84260346047347 M305.60949072451405,94.84260346047347 L301.49150329661876,97.79545877704936 M301.49150329661876,97.79545877704936 L296.95556925719194,102.17777768298481 M296.95556925719194,102.17777768298481 L291.62530395377377,109.1939698632242 M291.62530395377377,109.1939698632242 L285.78133141331494,120.09334032329997 M285.78133141331494,120.09334032329997 L279.26186207823116,139.25891777196335 M279.26186207823116,139.25891777196335 L275.5421595877202,158.3550370261589 M357.12418903863824,64.28865564291891 L343.91391499366404,61.57504489057487 M343.91391499366404,61.57504489057487 L329.9440013925986,60.75259547210135 M329.9440013925986,60.75259547210135 L316.0352812295676,61.86953611053309 M316.0352812295676,61.86953611053309 L303.00498238012676,64.86036376855327 M303.00498238012676,64.86036376855327 L291.6190634220593,69.54968298759411 M291.6190634220593,69.54968298759411 L282.5473105723718,75.66231915331105 M282.5473105723718,75.66231915331105 L282.5157282876449,43.915452082078446 M357.1175551092003,32.545757117327184 L343.9028638196076,29.833093484314986 M343.9028638196076,29.833093484314986 L329.9282788345965,29.010931142581967 M329.9282788345965,29.010931142581967 L316.0149070651971,30.127481914203713 M316.0149070651971,30.127481914203713 L302.9802491485767,33.11726571576526 M302.9802491485767,33.11726571576526 L291.5905194878641,37.80494853121945 M291.5905194878641,37.80494853121945 L282.5157282876449,43.915452082078446 M357.12418903863824,64.28865564291891 L357.1175551092003,32.545757117327184 M524.4627011769302,606.2242800349267 L521.6637505816135,609.131780372102 M521.6637505816135,609.131780372102 L518.6915109286577,611.9820299670415 M518.6915109286577,611.9820299670415 L515.5495147003547,614.7716067735511 M303.6816977096602,647.4832547709483 L303.8122113781064,815.4961475823364 M288.5164572389395,642.6479949570239 L293.47335186110644,644.3600580658776 M293.47335186110644,644.3600580658776 L298.5304572919284,645.9724581584084 M298.5304572919284,645.9724581584084 L303.6816977096602,647.4832547709483 M288.23946249827213,347.19357616977413 L288.5164572389395,642.6479949570239 M303.45217461241975,352.0135159035972 L298.28480751589683,350.5075057791142 M298.28480751589683,350.5075057791142 L293.21187184071385,348.90021440780714 M293.21187184071385,348.90021440780714 L288.23946249827213,347.19357616977413 M303.3203718504253,182.34114681878228 L303.45217461241975,352.0135159035972 M524.9242966302074,310.8853662064216 L522.1166150399034,313.7836399648963 M522.1166150399034,313.7836399648963 L519.1351004013886,316.6248457481602 M519.1351004013886,316.6248457481602 L515.9832961570519,319.40557230124165 M524.9242966302074,310.8853662064216 L524.4627011769302,606.2242800349267 M264.4896896652205,370.1115152531649 L276.6570762863742,367.58907799843286 M276.6570762863742,367.58907799843286 L287.5515156754598,363.58887616721006 M287.5515156754598,363.58887616721006 L296.63308168399334,358.3096449242269 M296.63308168399334,358.3096449242269 L303.45217461241975,352.0135159035972 M194.54142220343138,329.9789340867775 L192.8674521826818,319.6642629523589 M192.8674521826818,319.6642629523589 L194.0127799407971,314.496569646068 M194.0127799407971,314.496569646068 L196.12413755528047,312.68169163152294 M196.12413755528047,312.68169163152294 L198.33450963048622,312.2479753830637 M198.33450963048622,312.2479753830637 L201.65661760185674,312.6979454590856 M201.65661760185674,312.6979454590856 L204.85372046686263,313.80510967732886 M204.85372046686263,313.80510967732886 L209.36079302216953,316.04220551223796 M209.36079302216953,316.04220551223796 L214.12638127591381,318.99310464821156 M214.12638127591381,318.99310464821156 L218.39180449022538,322.01396394907783 M218.39180449022538,322.01396394907783 L222.3939064138215,325.11564821014235 M222.3939064138215,325.11564821014235 L227.2730550813749,329.20208920581916 M227.2730550813749,329.20208920581916 L233.77590603073122,335.1189912415881 M233.77590603073122,335.1189912415881 L242.20606111940452,343.54166146927196 M242.20606111940452,343.54166146927196 L254.38597139354033,357.2290410775016 M254.38597139354033,357.2290410775016 L264.4896896652205,370.1115152531649 M226.18545463360388,307.72032463771006 L215.1907628798373,311.6125968781091 M215.1907628798373,311.6125968781091 L205.96567171977216,316.7990414351168 M205.96567171977216,316.7990414351168 L198.96687658044044,323.02364591706583 M198.96687658044044,323.02364591706583 L194.54142220343138,329.9789340867775 M225.91536737609934,138.12965788913903 L226.18545463360388,307.72032463771006 M192.8414902111935,265.4533966647465 L192.77964879872542,233.64058162353467 M192.8414902111935,265.4533966647465 L195.29854123385167,273.3928862379864 M195.29854123385167,273.3928862379864 L201.03088101603743,280.7584463159026 M201.03088101603743,280.7584463159026 L209.70217842634696,287.11568370042767 M209.70217842634696,287.11568370042767 L220.80228909374938,292.089372746417 M220.80228909374938,292.089372746417 L233.6773086206885,295.3857039184893 M233.6773086206885,295.3857039184893 L247.56805193834145,296.80987137692637 M247.56805193834145,296.80987137692637 L247.52456269535787,264.98621058874306 M192.77964879872542,233.64058162353467 L195.23751470273908,241.57732370543206 M195.23751470273908,241.57732370543206 L200.97177084228838,248.94033571369255 M200.97177084228838,248.94033571369255 L209.6459740398229,255.2953744792459 M209.6459740398229,255.2953744792459 L220.74980911604683,260.26734380509475 M220.74980911604683,260.26734380509475 L233.62915213208595,263.56253542231246 M233.62915213208595,263.56253542231246 L247.52456269535787,264.98621058874306 M298.20437217061743,181.3840712150913 L298.4493862429401,476.3095722228519 M283.34864103644315,186.48704028195888 L288.1970986978505,184.68865634510826 M288.1970986978505,184.68865634510826 L293.15097254673583,182.98699585036428 M293.15097254673583,182.98699585036428 L298.20437217061743,181.3840712150913 M234.56748318704348,316.4235157306899 L231.59829324361155,313.57811216789474 M231.59829324361155,313.57811216789474 L228.80318203298617,310.6758836247577 M228.80318203298617,310.6758836247577 L226.18545463360388,307.72032463771006 M234.56748318704348,316.4235157306899 L235.0117541677164,611.7800591337619 M226.65579039617737,603.04916135334 L229.26538108868974,606.0141305273229 M229.26538108868974,606.0141305273229 L232.05180063676553,608.925598319816 M232.05180063676553,608.925598319816 L235.0117541677164,611.7800591337619 M226.65579039617737,603.04916135334 L226.92323855880417,770.9827123087958 M283.63990362075424,481.4288742620723 L288.47326528270486,479.6247346714599 M288.47326528270486,479.6247346714599 L293.41171686894234,477.9176276832775 M293.41171686894234,477.9176276832775 L298.4493862429401,476.3095722228519 M336.92463985744445,74.63776582396042 L336.89781916222546,11.058779000627737 M336.92463985744445,74.63776582396042 L330.80647032620476,75.13204217544745 M330.80647032620476,75.13204217544745 L324.6591373537653,74.77840976216021 M324.6591373537653,74.77840976216021 L318.84021655962744,73.5974578299855 M318.84021655962744,73.5974578299855 L313.68813766644314,71.65793541397511 M313.68813766644314,71.65793541397511 L309.5024433713847,69.07272671499129 M309.5024433713847,69.07272671499129 L306.52636879186844,65.9922672764601 M306.52636879186844,65.9922672764601 L304.9327009925795,62.59574173174758 M304.9327009925795,62.59574173174758 L304.81376702862923,59.080639690005796 M304.81376702862923,59.080639690005796 L306.1761453213092,55.6512442686801 M306.1761453213092,55.6512442686801 L308.9403790636315,52.506788778657096 M308.9403790636315,52.506788778657096 L312.9456072440504,49.82986028649191 M312.9456072440504,49.82986028649191 L317.9590133727538,47.775849913247725 M317.9590133727538,47.775849913247725 L323.68934392082315,46.46395578896136 M323.68934392082315,46.46395578896136 L329.8038106189389,45.9702816585002 M329.8038106189389,45.9702816585002 L335.94737195194404,46.323475772188544 M335.94737195194404,46.323475772188544 L341.7633076567471,47.503044354037456 M341.7633076567471,47.503044354037456 L346.91388822528864,49.4405558413531 M346.91388822528864,49.4405558413531 L351.0998814814535,52.02357796014371 M351.0998814814535,52.02357796014371 L354.0780198953776,55.10218293533512 M354.0780198953776,55.10218293533512 L355.67502289264723,58.49761287338674 M355.67502289264723,58.49761287338674 L355.7978080404016,62.01263409707724 M355.7978080404016,62.01263409707724 L354.4389026479958,65.44296146169029 M354.4389026479958,65.44296146169029 L351.6769886124872,68.58917364317415 M351.6769886124872,68.58917364317415 L347.67237582619174,71.2682649738125 M347.67237582619174,71.2682649738125 L342.6577397953215,73.32434885001089 M342.6577397953215,73.32434885001089 L336.92463985744445,74.63776582396042 M267.2320379759422,222.44942117560612 L267.158295437482,158.7674113496355 M267.2320379759422,222.44942117560612 L271.0485170539811,225.2364667909699 M271.0485170539811,225.2364667909699 L273.5854956835945,228.46549848202977 M273.5854956835945,228.46549848202977 L274.69533266186096,231.94898786746856 M274.69533266186096,231.94898786746856 L274.3132159547328,235.48455591516216 M274.3132159547328,235.48455591516216 L272.46101039927123,238.86671344966874 M272.46101039927123,238.86671344966874 L269.2461012832538,241.8987845381215 M269.2461012832538,241.8987845381215 L264.8551630693942,244.40439555355675 M264.8551630693942,244.40439555355675 L259.5433914866252,246.2377343040252 M259.5433914866252,246.2377343040252 L253.6196295764721,247.2920919949727 M253.6196295764721,247.2920919949727 L247.42843514642777,247.50607719134229 M247.42843514642777,247.50607719134229 L241.3299334506222,246.8672385833333 M241.3299334506222,246.8672385833333 L235.6788547009068,245.4127716599432 M235.6788547009068,245.4127716599432 L230.80385719445627,243.2273358844936 M230.80385719445627,243.2273358844936 L226.98831219725386,240.4381389731382 M226.98831219725386,240.4381389731382 L224.45391003847078,237.20744881813525 M224.45391003847078,237.20744881813525 L223.34770166744016,233.72317374123293 M223.34770166744016,233.72317374123293 L223.73366785183984,230.1878727639854 M223.73366785183984,230.1878727639854 L225.5890618924719,226.80697388126077 M225.5890618924719,226.80697388126077 L228.8057680502329,223.77686468126964 M228.8057680502329,223.77686468126964 L233.1967001851345,221.27346934987474 M233.1967001851345,221.27346934987474 L238.50666396075428,219.44209248782565 M238.50666396075428,219.44209248782565 L244.4272304789037,218.3889934508096 M244.4272304789037,218.3889934508096 L250.6145739658063,218.17527532178892 M250.6145739658063,218.17527532178892 L256.70945136548244,218.8133282374851 M256.70945136548244,218.8133282374851 L262.35796274501104,220.26613670256353 M262.35796274501104,220.26613670256353 L267.2320379759422,222.44942117560612 M464.40172083001244,662.6116151031382 L480.23806727740515,673.7943195114385 M480.23806727740515,673.7943195114385 L491.8566684832708,686.5901326469096 M491.8566684832708,686.5901326469096 L498.77926928851775,700.4773583367514 M498.77926928851775,700.4773583367514 L500.7185765850628,714.8888546928513 M500.7185765850628,714.8888546928513 L497.5906692583659,729.2350236443885 M497.5906692583659,729.2350236443885 L489.5191737036629,742.927873357815 M489.5191737036629,742.927873357815 L476.8309035909242,755.4052063580878 M476.8309035909242,755.4052063580878 L460.0430824832622,766.1538872626178 M460.0430824832622,766.1538872626178 L439.8425260165782,774.7312280307093 M439.8425260165782,774.7312280307093 L417.05762651092414,780.7835473114905 M417.05762651092414,780.7835473114905 L392.6241768351828,784.0610471394134 M392.6241768351828,784.0610471394134 L367.5466108712675,784.4283791138458 M367.5466108712675,784.4283791138458 L342.85618712356717,781.8703674718995 M342.85618712356717,781.8703674718995 L319.5680355864757,776.4926624900897 M319.5680355864757,776.4926624900897 L298.638921741558,768.5172500202665 M298.638921741558,768.5172500202665 L280.9274675252086,758.2730873305296 M280.9274675252086,758.2730873305296 L267.15877458797087,746.18222089937 M267.15877458797087,746.18222089937 L257.894728035299,732.7420694526014 M257.894728035299,732.7420694526014 L253.5112584793062,718.5047042299639 M253.5112584793062,718.5047042299639 L254.18353111065562,704.0539133683292 M254.18353111065562,704.0539133683292 L259.87944688030245,689.981168855726 M259.87944688030245,689.981168855726 L270.3617149824342,676.8614433910429 M270.3617149824342,676.8614433910429 L285.19821608440253,665.2298474763447 M285.19821608440253,665.2298474763447 L303.7801922899735,655.5600687441538 M303.7801922899735,655.5600687441538 L325.34736256722834,648.2453632460722 M325.34736256722834,648.2453632460722 L349.0189844024155,643.5828931125876 M349.0189844024155,643.5828931125876 L373.82955624434356,641.7619280005346 M373.82955624434356,641.7619280005346 L398.76774499645467,642.8563628600899 M398.76774499645467,642.8563628600899 L422.8170950936129,646.8217879621947 M422.8170950936129,646.8217879621947 L444.9968992847245,653.4972470542143 M444.9968992847245,653.4972470542143 L464.40172083001244,662.6116151031382 M464.40172083001244,662.6116151031382 L464.9732843156642,46.09187476877298 M526.7254627860601,182.75126354961964 L526.8260254228301,119.0968610508724 M526.7254627860601,182.75126354961964 L529.0271183666046,179.47278302028397 M529.0271183666046,179.47278302028397 L532.6374172432976,176.60571044360987 M532.6374172432976,176.60571044360987 L537.3464551599329,174.31650348217235 M537.3464551599329,174.31650348217235 L542.8806078435789,172.7380132144601 M542.8806078435789,172.7380132144601 L548.918431860889,171.96182217621094 M548.918431860889,171.96182217621094 L555.1093593427299,172.0329615368028 M555.1093593427299,172.0329615368028 L561.0939044377891,172.94729993926356 M561.0939044377891,172.94729993926356 L566.5245585792654,174.65180202275013 M566.5245585792654,174.65180202275013 L571.0858912246176,177.04755286648142 M571.0858912246176,177.04755286648142 L574.5128443751834,179.99552756125448 M574.5128443751834,179.99552756125448 L576.6061211192247,183.3245582139833 M576.6061211192247,183.3245582139833 L577.2438162279522,186.84130278749967 M577.2438162279522,186.84130278749967 L576.3885366136976,190.3414181559281 M576.3885366136976,190.3414181559281 L574.0896871181578,193.62143394382886 M574.0896871181578,193.62143394382886 L570.4806131288587,196.49059695558807 M570.4806131288587,196.49059695558807 L565.770962464369,198.7819844001274 M565.770962464369,198.7819844001274 L560.2344997748021,200.3622456789136 M560.2344997748021,200.3622456789136 L554.1931691678878,201.13938125120626 M554.1931691678878,201.13938125120626 L547.9983867661241,201.06815542307072 M547.9983867661241,201.06815542307072 L542.0104853239418,200.15271247710425 M542.0104853239418,200.15271247710425 L536.5777510340995,198.44634577423236 M536.5777510340995,198.44634577423236 L532.016094282969,196.04838555297678 M532.016094282969,196.04838555297678 L528.5906594642456,193.09838350899236 M528.5906594642456,193.09838350899236 L526.5003801625605,189.76795324366637 M526.5003801625605,189.76795324366637 L525.8664759653649,186.25076679469126 M525.8664759653649,186.25076679469126 L526.7254627860601,182.75126354961964 M577.9451923533284,308.00628099115795 L574.228894307842,313.42203314328856 M574.228894307842,313.42203314328856 L570.0658455612939,318.73124248410727 M570.0658455612939,318.73124248410727 L565.4653383438115,323.92185341264076 M577.9451923533284,308.00628099115795 L593.7925849806878,277.78024965356155 M593.7925849806878,277.78024965356155 L587.8911368353995,286.57011488150613 M562.8050932553992,316.6907564338702 L524.9242966302074,310.8853662064216 M577.9451923533284,308.00628099115795 L562.8050932553992,316.6907564338702 M580.9848928929189,213.92911350126354 L554.0896383948217,209.81661470265 M554.0896383948217,209.81661470265 L554.0301952787094,241.621177062958 M580.9164178900168,245.7351010251935 L554.0301952787094,241.621177062958 M582.4478917191574,200.62836065602932 L593.9138198660671,224.82972984482694 M593.9138198660671,224.82972984482694 L562.9506214270814,242.562302845927 M562.9506214270814,242.562302845927 L554.2142268107004,241.22554254973687 M554.0301952787094,241.621177062958 L554.2142268107004,241.22554254973687 M573.9024954373642,198.89908379403298 L600.7658389523292,203.00547403569396 M573.7188021260413,199.2939980378578 L573.9024954373642,198.89908379403298 M573.9685492062483,167.10933580667466 L600.840909239647,171.21430096970866 M573.9685492062483,167.10933580667466 L573.9024954373642,198.89908379403298 M509.1351468392786,180.06288638466773 L540.1087997593505,162.35979483352094 M520.5695779345266,204.26752631853674 L509.1351468392786,180.06288638466773 M554.2737312022147,209.42111725971358 L520.5695779345266,204.26752631853674 M554.0896383948217,209.81661470265 L554.2737312022147,209.42111725971358 M573.7847948441147,167.50411298920667 L573.9685492062483,167.10933580667466 M593.9138198660671,224.82972984482694 L593.7925849806878,277.78024965356155 M508.42944235859557,686.2244573902728 L509.1351468392786,180.06288638466773 M539.2380502324879,668.424496010486 L508.42944235859557,686.2244573902728 M587.2334478687362,581.8315774073087 L593.0198787744007,615.2672291997985 M592.8996406351381,667.7824104107689 L593.0198787744007,615.2672291997985 M592.8996406351381,667.7824104107689 L581.4878079841375,643.4652554514507 M553.3853392224313,684.2565979742859 L562.0808551505218,685.599745830906 M562.0808551505218,685.599745830906 L592.8996406351381,667.7824104107689 M572.9823717820447,641.7277007525904 L572.7995289425857,642.1245054556957 M599.7201163863367,645.8537467987402 L572.9823717820447,641.7277007525904 M553.2021612831525,684.6541230205464 L579.962571441678,688.7877034320051 M553.3853392224313,684.2565979742859 L553.2021612831525,684.6541230205464 M572.9169775495345,673.2000331635998 L572.7341951568471,673.5969708890138 M572.9169775495345,673.2000331635998 L572.9823717820447,641.7277007525904 M519.8024264755247,710.56142616631 L553.3264295085356,715.743174792725 M508.42944235859557,686.2244573902728 L519.8024264755247,710.56142616631 M599.6457957294675,677.3274622902692 L572.9169775495345,673.2000331635998 M553.1433122372846,716.1408328628921 L579.8947808329702,720.2757963625303 M553.3264295085356,715.743174792725 L553.1433122372846,716.1408328628921 M525.9257942806225,688.9275388106362 L525.071334606491,692.4461803226292 M525.071334606491,692.4461803226292 L525.7017938498042,695.9825989009258 M525.7017938498042,695.9825989009258 L527.7808528524224,699.3312374760977 M527.7808528524224,699.3312374760977 L531.1879413638494,702.2973657966259 M531.1879413638494,702.2973657966259 L535.7251905871291,704.7084330628135 M535.7251905871291,704.7084330628135 L541.1288749531743,706.4241258125546 M541.1288749531743,706.4241258125546 L547.0847742566058,707.3445717814789 M547.0847742566058,707.3445717814789 L553.2464652345166,707.4161868605668 M553.2464652345166,707.4161868605668 L559.2555417237083,706.6348041594873 M559.2555417237083,706.6348041594873 L564.7624653674344,705.0459061549066 M564.7624653674344,705.0459061549066 L569.447010797928,702.7419943885224 M569.447010797928,702.7419943885224 L573.0368729672075,699.8571473284686 M573.0368729672075,699.8571473284686 L575.3235194865113,696.5591992740322 M575.3235194865113,696.5591992740322 L576.1743115225005,693.0399455912706 M576.1743115225005,693.0399455912706 L575.5401017372412,689.5039689322871 M575.5401017372412,689.5039689322871 L573.4580771682972,686.1567301219579 M573.4580771682972,686.1567301219579 L570.0494864108326,683.192629325169 M570.0494864108326,683.192629325169 L565.5125578206907,680.783771695794 M565.5125578206907,680.783771695794 L560.1109314327699,679.0699437371528 M560.1109314327699,679.0699437371528 L554.1583527049515,678.1506024213543 M554.1583527049515,678.1506024213543 L548.0004755157216,678.0790738050525 M548.0004755157216,678.0790738050525 L541.9948683543264,678.8595118916876 M541.9948683543264,678.8595118916876 L536.490230100558,680.446638682752 M536.490230100558,680.446638682752 L531.8062909345019,682.7483697496319 M531.8062909345019,682.7483697496319 L528.2152170122723,685.631126193812 M528.2152170122723,685.631126193812 L525.9257942806225,688.9275388106362 M593.0198787744007,615.2672291997985 L577.3182283713662,603.3360282126948 M564.8771050887239,619.3022597016344 L569.4633230414287,614.0951308535847 M569.4633230414287,614.0951308535847 L573.613452058962,608.7690224460961 M573.613452058962,608.7690224460961 L577.3182283713662,603.3360282126948 M562.2252508404833,612.0481504395107 L577.3182283713662,603.3360282126948 M524.4627011769302,606.2242800349267 L562.2252508404833,612.0481504395107 M553.1433122372846,716.1408328628921 L553.2021612831525,684.6541230205464 M195.1107402022899,625.3786110702036 L199.5223006214286,618.4011941266444 M199.5223006214286,618.4011941266444 L206.49918538969732,612.1567800992278 M206.49918538969732,612.1567800992278 L215.69543792596588,606.9538259322229 M215.69543792596588,606.9538259322229 L226.65579039617737,603.04916135334 M264.8410046073884,665.6387504517356 L251.05656285042738,684.6866778137382 M251.05656285042738,684.6866778137382 L239.65383468833681,695.6424319079837 M239.65383468833681,695.6424319079837 L232.01086998916583,700.5764391523485 M232.01086998916583,700.5764391523485 L226.62868545737226,702.7979429302845 M226.62868545737226,702.7979429302845 L220.56101994257716,703.894991748612 M220.56101994257716,703.894991748612 L215.98646923247463,703.5637001486255 M215.98646923247463,703.5637001486255 L210.82912845565255,701.6925936653123 M210.82912845565255,701.6925936653123 L206.50221328301998,698.4941401831315 M206.50221328301998,698.4941401831315 L203.35574055457977,694.8424284539926 M203.35574055457977,694.8424284539926 L200.90590760053908,690.8656974285914 M200.90590760053908,690.8656974285914 L198.476555126716,685.3981339722179 M198.476555126716,685.3981339722179 L196.06139444085568,677.1763114425731 M196.06139444085568,677.1763114425731 L194.15652176019296,665.0728081162446 M194.15652176019296,665.0728081162446 L193.61684179163882,644.8145472293123 M193.61684179163882,644.8145472293123 L195.1107402022899,625.3786110702036 M303.6816977096602,647.4832547709483 L296.8839303654997,653.7993912198363 M296.8839303654997,653.7993912198363 L287.8307558392393,659.0953943651865 M287.8307558392393,659.0953943651865 L276.9703683184232,663.1083021874008 M276.9703683184232,663.1083021874008 L264.8410046073884,665.6387504517356 M248.1738471996889,740.1062265582756 L234.348117654416,738.6752694280464 M234.348117654416,738.6752694280464 L221.53332361526148,735.3632215372833 M221.53332361526148,735.3632215372833 L210.48509356025252,730.365814082245 M210.48509356025252,730.365814082245 L201.85427370963393,723.9782531995933 M201.85427370963393,723.9782531995933 L196.1486290684873,716.5775498246057 M196.1486290684873,716.5775498246057 L193.70292992128506,708.6001663225743 M193.70292992128506,708.6001663225743 L193.76415298161305,740.0948850998302 M248.21690130377084,771.6114703805383 L234.3957923197974,770.1800355241616 M234.3957923197974,770.1800355241616 L221.5852785484549,766.8668817921944 M221.5852785484549,766.8668817921944 L210.54073570027165,761.8678054860402 M210.54073570027165,761.8678054860402 L201.91279264845954,755.4781110038168 M201.91279264845954,755.4781110038168 L196.20904529239567,748.0749348912598 M196.20904529239567,748.0749348912598 L193.76415298161305,740.0948850998302 M248.1738471996889,740.1062265582756 L248.21690130377084,771.6114703805383 M267.8184315443579,728.8426341772512 L267.89129035756713,791.7614834002682 M267.8184315443579,728.8426341772512 L262.97037497630737,726.6474281926627 M262.97037497630737,726.6474281926627 L257.35202807076263,725.1866862666062 M257.35202807076263,725.1866862666062 L251.28971014408063,724.5451489333733 M251.28971014408063,724.5451489333733 L245.1354322041122,724.7600341910874 M245.1354322041122,724.7600341910874 L239.2465192386495,725.8188841171235 M239.2465192386495,725.8188841171235 L233.96496025302497,727.660261371863 M233.96496025302497,727.660261371863 L229.59753507864994,730.1773254605527 M229.59753507864994,730.1773254605527 L226.3980718699557,733.2239773890869 M226.3980718699557,733.2239773890869 L224.55265309365947,736.6233316207959 M224.55265309365947,736.6233316207959 L224.16881178270881,740.1779279653036 M224.16881178270881,740.1779279653036 L225.26916770992128,743.6812170955807 M225.26916770992128,743.6812170955807 L227.79007693259643,746.9295349641853 M227.79007693259643,746.9295349641853 L231.5852702074483,749.7339487208333 M231.5852702074483,749.7339487208333 L236.4342392490683,751.9313061870861 M236.4342392490683,751.9313061870861 L242.05512617594098,753.3937067096447 M242.05512617594098,753.3937067096447 L248.1210297684404,754.0360298006578 M248.1210297684404,754.0360298006578 L254.27911758948636,753.8208774533413 M254.27911758948636,753.8208774533413 L260.17119185989185,752.7607687684972 M260.17119185989185,752.7607687684972 L265.45453934962836,750.9174294618641 M265.45453934962836,750.9174294618641 L269.8219705060025,748.3981495045116 M269.8219705060025,748.3981495045116 L273.0196558042827,745.3495355240398 M273.0196558042827,745.3495355240398 L274.86192007230386,741.9489225356702 M274.86192007230386,741.9489225356702 L275.24195294466466,738.3940590984624 M275.24195294466466,738.3940590984624 L274.13800710928945,734.8915557251174 M274.13800710928945,734.8915557251174 L271.61454890979877,731.6448964586492 M271.61454890979877,731.6448964586492 L267.8184315443579,728.8426341772512 M337.13791951261476,580.221393505131 L337.1644198008273,643.0408492024047 M337.13791951261476,580.221393505131 L342.840473092672,578.9007601856913 M342.840473092672,578.9007601856913 L347.82838916975413,576.8333787088791 M347.82838916975413,576.8333787088791 L351.81166250212044,574.1395650652887 M351.81166250212044,574.1395650652887 L354.5588571665054,570.9760615061867 M354.5588571665054,570.9760615061867 L355.91051658067175,567.5268786851051 M355.91051658067175,567.5268786851051 L355.788376822915,563.9925336549028 M355.788376822915,563.9925336549028 L354.19986954029423,560.5784346581532 M354.19986954029423,560.5784346581532 L351.2375804761377,557.4829003225152 M351.2375804761377,557.4829003225152 L347.07386709119623,554.8856723857732 M347.07386709119623,554.8856723857732 L341.95070198780377,552.9375041785928 M341.95070198780377,552.9375041785928 L336.16572527388956,551.7514472981525 M336.16572527388956,551.7514472981525 L330.0548700276136,551.3963103534079 M330.0548700276136,551.3963103534079 L323.97295916946786,551.8927000518015 M323.97295916946786,551.8927000518015 L318.2731455065907,553.2118102779862 M318.2731455065907,553.2118102779862 L313.2864463017022,555.2771179826661 M313.2864463017022,555.2771179826661 L309.3025641009621,557.9687684794033 M309.3025641009621,557.9687684794033 L306.5530743162192,561.1305150701082 M306.5530743162192,561.1305150701082 L305.19797891163716,564.5787658547196 M305.19797891163716,564.5787658547196 L305.3163083733099,568.113191674801 M305.3163083733099,568.113191674801 L306.9015158927986,571.5283864344256 M306.9015158927986,571.5283864344256 L309.8617630329954,574.6257755110473 M309.8617630329954,574.6257755110473 L314.02518071317854,577.2251903529798 M314.02518071317854,577.2251903529798 L319.1498281895235,579.175369749111 M319.1498281895235,579.175369749111 L324.9377583131752,580.3628101638836 M324.9377583131752,580.3628101638836 L331.05234513593206,580.7183854707204 M331.05234513593206,580.7183854707204 L337.13791951261476,580.221393505131 M525.9257942806225,688.9275388106362 L525.826435761908,751.8197554934529 M303.4989234933153,446.0532953400804 L294.0924733080612,448.1853986820982 M294.0924733080612,448.1853986820982 L284.8717774505181,450.57166838980805 M284.8717774505181,450.57166838980805 L275.8575210955588,453.20678604962745 M303.4989234933153,446.0532953400804 L319.2616099713195,458.0098146109469 M319.2616099713195,458.0098146109469 L340.74163417385466,440.3277748198385 M288.4058766123316,454.70720146707765 L298.4493862429401,476.3095722228519 M303.4989234933153,446.0532953400804 L288.4058766123316,454.70720146707765 M364.35521598176285,553.2169257357617 L357.22316835634865,537.8979195955707 M364.35101998533764,521.7849045932995 L357.2166004756855,506.4710599389754 M364.35521598176285,553.2169257357617 L364.35101998533764,521.7849045932995 M341.8056930062436,590.2656370047669 L372.6143988258894,572.5381424812534 M299.7331268723206,583.7753757427963 L341.8056930062436,590.2656370047669 M290.8150167163472,564.5507787200441 L299.7331268723206,583.7753757427963 M290.1280829884862,564.6566480274357 L290.8150167163472,564.5507787200441 M283.0185228378993,549.3301771113836 L290.1280829884862,564.6566480274357 M363.66861810387576,553.3227414647718 L364.35521598176285,553.2169257357617 M290.1280829884862,564.6566480274357 L290.09917212876854,533.2207746291942 M282.9872550693478,517.8994652296934 L290.09917212876854,533.2207746291942 M361.34533748074546,516.9131626343625 L319.29361256802457,510.43665203067144 M319.29361256802457,510.43665203067144 L288.4746657786233,528.1350322998744 M288.4746657786233,528.1350322998744 L290.78633463512426,533.1149409641336 M290.09917212876854,533.2207746291942 L290.78633463512426,533.1149409641336 M363.66419355118774,521.8906846810169 L364.35101998533764,521.7849045932995 M319.29361256802457,510.43665203067144 L319.2616099713195,458.0098146109469 M340.62869042288617,145.51717075328747 L319.0559492434718,121.09523102667004 M319.0236822453604,68.23524970698554 L319.0559492434718,121.09523102667004 M319.0236822453604,68.23524970698554 L361.272233968303,74.68073990035964 M290.3827706808974,90.80495339334061 L288.06032021883954,85.8488801302085 M288.06032021883954,85.8488801302085 L319.0236822453604,68.23524970698554 M364.2919813526272,79.52915326694642 L363.6019390787005,79.63442687344491 M357.12418903863824,64.28865564291891 L364.2919813526272,79.52915326694642 M289.692389200116,90.91028055881713 L282.5473105723718,75.66231915331105 M290.3827706808974,90.80495339334061 L289.692389200116,90.91028055881713 M364.28774314599934,47.78093738803102 L363.59747001651556,47.88617427658096 M364.28774314599934,47.78093738803102 L364.2919813526272,79.52915326694642 M299.31948673416406,78.1723299769593 L290.3537999981488,59.05280558079153 M341.61737209592434,84.62713743938986 L299.31948673416406,78.1723299769593 M372.5911245462604,66.99650398286451 L341.61737209592434,84.62713743938986 M357.1175551092003,32.545757117327184 L364.28774314599934,47.78093738803102 M289.6631874362234,59.15809602673062 L282.5157282876449,43.915452082078446 M290.3537999981488,59.05280558079153 L289.6631874362234,59.15809602673062 M341.8056930062436,590.2656370047669 L341.61737209592434,84.62713743938986 M319.0559492434718,121.09523102667004 L303.2698161774093,151.22439706616805 M275.5421595877202,158.3550370261589 L284.58454942844685,155.72833606297976 M284.58454942844685,155.72833606297976 L293.83401807543277,153.34968901440556 M293.83401807543277,153.34968901440556 L303.2698161774093,151.22439706616805 M288.12964707644716,159.85066045406543 L303.2698161774093,151.22439706616805 M298.20437217061743,181.3840712150913 L288.12964707644716,159.85066045406543 M289.6631874362234,59.15809602673062 L289.692389200116,90.91028055881713 M260.8284118497548,658.5872042264132 L288.5164572389395,642.6479949570239 M240.14911393753437,655.3916559467525 L260.8284118497548,658.5872042264132 M240.14911393753437,655.3916559467525 L248.0931842497685,659.0313802314054 M248.0931842497685,659.0313802314054 L256.3300400799332,662.4496787858194 M256.3300400799332,662.4496787858194 L264.8410046073884,665.6387504517356 M291.9107820170134,745.8192846057478 L291.45366487307973,239.3339133640678 M291.45366487307973,239.3339133640678 L266.74299390747564,253.4376761685733 M266.78001679403883,285.2573427519262 L266.74299390747564,253.4376761685733 M266.78001679403883,285.2573427519262 L260.37326378656854,288.9165310538521 M260.37326378656854,288.9165310538521 L260.4645785874978,363.0822952533478 M288.23946249827213,347.19357616977413 L260.4645785874978,363.0822952533478 M260.8284118497548,658.5872042264132 L260.91901534867804,732.1752498489742 M260.91901534867804,732.1752498489742 L267.2957378217452,728.4986098429221 M267.3323903605946,759.9999776152954 L267.2957378217452,728.4986098429221 M267.3323903605946,759.9999776152954 L291.9107820170134,745.8192846057478 M264.4896896652205,370.1115152531649 L255.9520826704349,366.9325398365341 M255.9520826704349,366.9325398365341 L247.68944874363717,363.5250647374404 M247.68944874363717,363.5250647374404 L239.72052333369732,359.89686671959214 M260.4645785874978,363.0822952533478 L239.72052333369732,359.89686671959214 M562.8050932553992,316.6907564338702 L562.9506214270814,242.562302845927 M554.2737312022147,209.42111725971358 L554.2142268107004,241.22554254973687 M520.5695779345266,204.26752631853674 L519.8024264755247,710.56142616631 M553.3853392224313,684.2565979742859 L553.3264295085356,715.743174792725 M562.2252508404833,612.0481504395107 L562.0808551505218,685.599745830906 M212.30801272492116,344.16768730051143 L218.0330041935265,335.3951460506627 M218.0330041935265,335.3951460506627 L239.72052333369732,359.89686671959214 M212.30801272492116,344.16768730051143 L205.99353846756682,339.60061583651304 M205.99353846756682,339.60061583651304 L200.0669093449115,334.86743224247607 M200.0669093449115,334.86743224247607 L194.54142220343138,329.9789340867775 M206.79265720164668,332.29132035718 L234.56748318704348,316.4235157306899 M212.30801272492116,344.16768730051143 L206.79265720164668,332.29132035718 M192.77964879872542,233.64058162353467 L212.50488479465398,222.3972374749481 M212.50488479465398,222.3972374749481 L212.5600898727013,254.20615881285752 M192.8414902111935,265.4533966647465 L212.5600898727013,254.20615881285752 M260.37326378656854,288.9165310538521 L217.94403479941047,282.4114820078179 M217.94403479941047,282.4114820078179 L206.6593599214008,258.15031189720105 M206.6593599214008,258.15031189720105 L213.06609844165166,254.49594461747543 M212.5600898727013,254.20615881285752 L213.06609844165166,254.49594461747543 M267.28669918512406,285.54751444741925 L247.56805193834145,296.80987137692637 M266.78001679403883,285.2573427519262 L267.28669918512406,285.54751444741925 M267.2498463245352,253.72774751574576 L247.52456269535787,264.98621058874306 M267.2498463245352,253.72774751574576 L267.28669918512406,285.54751444741925 M280.1297142802355,215.0928413946678 L291.45366487307973,239.3339133640678 M237.72168419009307,208.6017447015708 L280.1297142802355,215.0928413946678 M213.01106293719812,222.68692293520274 L237.72168419009307,208.6017447015708 M212.50488479465398,222.3972374749481 L213.01106293719812,222.68692293520274 M266.74299390747564,253.4376761685733 L267.2498463245352,253.72774751574576 M290.8150167163472,564.5507787200441 L290.78633463512426,533.1149409641336 M299.7331268723206,583.7753757427963 L299.31948673416406,78.1723299769593 M290.3827706808974,90.80495339334061 L290.3537999981488,59.05280558079153 M288.06032021883954,85.8488801302085 L288.12964707644716,159.85066045406543 M288.4058766123316,454.70720146707765 L288.4746657786233,528.1350322998744 M235.0117541677164,611.7800591337619 L207.32376616315358,627.6983529360185 M206.79265720164668,332.29132035718 L206.6593599214008,258.15031189720105 M213.01106293719812,222.68692293520274 L213.06609844165166,254.49594461747543 M237.72168419009307,208.6017447015708 L238.4655620540903,714.919325836395 M238.4655620540903,714.919325836395 L213.8872193175046,729.0814327148572 M213.83273398465926,697.5903952282018 L213.8872193175046,729.0814327148572 M213.83273398465926,697.5903952282018 L207.4560257963945,701.2622138710976 M207.32376616315358,627.6983529360185 L207.4560257963945,701.2622138710976 M195.1107402022899,625.3786110702036 L200.61904026589465,630.282658472112 M200.61904026589465,630.282658472112 L206.52722474888057,635.0308942392438 M206.52722474888057,635.0308942392438 L212.82203800210596,639.6124867710511 M207.32376616315358,627.6983529360185 L212.82203800210596,639.6124867710511 M449.46396773776013,671.2330556209067 L463.37321408576634,681.2002387415312 M463.37321408576634,681.2002387415312 L473.24999627814515,692.6619196908525 M473.24999627814515,692.6619196908525 L478.63017858498836,705.0839281651341 M478.63017858498836,705.0839281651341 L479.25880998474867,717.8864540770468 M479.25880998474867,717.8864540770468 L475.1026718321817,730.4710029680198 M475.1026718321817,730.4710029680198 L466.35254087393434,742.2483151142002 M466.35254087393434,742.2483151142002 L453.41492257682165,752.6660947238255 M453.41492257682165,752.6660947238255 L436.8935263500198,761.2351204436222 M436.8935263500198,761.2351204436222 L417.5612838674606,767.5525121823919 M417.5612838674606,767.5525121823919 L396.3241285053103,771.3209773307366 M396.3241285053103,771.3209773307366 L374.17826260578096,772.3630586154284 M374.17826260578096,772.3630586154284 L352.16298640865375,770.6296754735378 M352.16298640865375,770.6296754735378 L331.3114139399543,766.202469877557 M331.3114139399543,766.202469877557 L312.60146472859566,759.289888498775 M312.60146472859566,759.289888498775 L296.9095986023341,750.2171683687669 M296.9095986023341,750.2171683687669 L284.9695452119849,739.4107555020868 M284.9695452119849,739.4107555020868 L277.33799177670033,727.3779507514522 M277.33799177670033,727.3779507514522 L274.3688530578578,714.6828227730335 M274.3688530578578,714.6828227730335 L276.1972636959403,701.9195709149103 M276.1972636959403,701.9195709149103 L282.7339602230085,689.6846250040747 M282.7339602230085,689.6846250040747 L293.6701254232287,678.5488337465198 M293.6701254232287,678.5488337465198 L308.4924331508009,669.0310024018146 M308.4924331508009,669.0310024018146 L326.5074024880649,661.5739801045536 M326.5074024880649,661.5739801045536 L346.87389752636057,656.524354926441 M346.87389752636057,656.524354926441 L368.6422367618741,654.1166429518461 M368.6422367618741,654.1166429518461 L390.79809601499346,654.4626128615713 M390.79809601499346,654.4626128615713 L412.3093287202311,657.5462063678901 M412.3093287202311,657.5462063678901 L432.1734528965696,663.2242689567468 M432.1734528965696,663.2242689567468 L449.46396773776013,671.2330556209067 M240.14911393753437,655.3916559467525 L218.60005923657826,673.0916561076398 M218.60005923657826,673.0916561076398 L212.82203800210596,639.6124867710511 M207.4560257963945,701.2622138710976 L218.6882962613255,725.6391745188633 M218.6882962613255,725.6391745188633 L260.91901534867804,732.1752498489742 M267.80005177073923,728.7901655478017 L267.2957378217452,728.4986098429221 M248.1738471996889,740.1062265582756 L267.80005177073923,728.7901655478017 M213.32908757198248,697.2992254417007 L193.70292992128506,708.6001663225743 M213.83273398465926,697.5903952282018 L213.32908757198248,697.2992254417007 M213.38374078665373,728.7901655478017 L193.76415298161305,740.0948850998302 M213.38374078665373,728.7901655478017 L213.32908757198248,697.2992254417007 M280.6471010942515,721.4458804617677 L238.4655620540903,714.919325836395 M291.9107820170134,745.8192846057478 L280.6471010942515,721.4458804617677 M267.8365359821453,760.2916307007295 L267.3323903605946,759.9999776152954 M248.21690130377084,771.6114703805383 L267.8365359821453,760.2916307007295 M213.8872193175046,729.0814327148572 L213.38374078665373,728.7901655478017 M267.8365359821453,760.2916307007295 L267.80005177073923,728.7901655478017 M449.451894610189,686.9374196607857 L449.46396773776013,671.2330556209067 M218.6882962613255,725.6391745188633 L218.60005923657826,673.0916561076398 M280.6471010942515,721.4458804617677 L280.1297142802355,215.0928413946678 M217.94403479941047,282.4114820078179 L218.0330041935265,335.3951460506627" stroke="black"  stroke-width="4"  fill="red"/></svg>